<svg width="410" height="110" viewBox="0 0 410 110" fill="none" xmlns="http://www.w3.org/2000/svg">
<g filter="url(#filter0_d_207_221)">
<rect x="30" y="22" width="350" height="50" rx="4" fill="#3F8E00" shape-rendering="crispEdges"/>
<rect x="30.5" y="22.5" width="349" height="49" rx="3.5" stroke="#62BA1B" shape-rendering="crispEdges"/>
<path d="M175.599 52.168C174.778 52.168 174.064 52.0327 173.457 51.762C172.851 51.4913 172.361 51.1227 171.987 50.656L173.205 49.312C173.56 49.704 173.947 49.9933 174.367 50.18C174.797 50.3667 175.231 50.46 175.669 50.46C176.173 50.46 176.556 50.348 176.817 50.124C177.079 49.9 177.209 49.578 177.209 49.158C177.209 48.8127 177.107 48.5513 176.901 48.374C176.705 48.1967 176.369 48.0707 175.893 47.996L174.871 47.828C173.994 47.6787 173.359 47.3567 172.967 46.862C172.575 46.358 172.379 45.7467 172.379 45.028C172.379 44.0853 172.687 43.3573 173.303 42.844C173.919 42.3213 174.783 42.06 175.893 42.06C176.649 42.06 177.307 42.1767 177.867 42.41C178.427 42.6433 178.88 42.9607 179.225 43.362L178.035 44.692C177.774 44.4027 177.466 44.1787 177.111 44.02C176.757 43.852 176.355 43.768 175.907 43.768C174.965 43.768 174.493 44.1553 174.493 44.93C174.493 45.266 174.596 45.518 174.801 45.686C175.016 45.854 175.361 45.98 175.837 46.064L176.859 46.246C177.653 46.386 178.264 46.6847 178.693 47.142C179.123 47.5993 179.337 48.2153 179.337 48.99C179.337 49.4473 179.258 49.872 179.099 50.264C178.941 50.6467 178.703 50.9827 178.385 51.272C178.068 51.552 177.676 51.7713 177.209 51.93C176.752 52.0887 176.215 52.168 175.599 52.168ZM185.366 50.684H185.282C185.123 51.0947 184.871 51.4447 184.526 51.734C184.19 52.0233 183.733 52.168 183.154 52.168C182.809 52.168 182.491 52.112 182.202 52C181.913 51.8787 181.665 51.7013 181.46 51.468C181.255 51.2347 181.091 50.95 180.97 50.614C180.858 50.278 180.802 49.8907 180.802 49.452V44.776H182.874V49.172C182.874 50.1053 183.28 50.572 184.092 50.572C184.251 50.572 184.405 50.5533 184.554 50.516C184.713 50.4693 184.848 50.404 184.96 50.32C185.081 50.2267 185.179 50.1147 185.254 49.984C185.329 49.8533 185.366 49.6993 185.366 49.522V44.776H187.438V52H185.366V50.684ZM189.169 41.64H191.241V46.092H191.339C191.516 45.6627 191.773 45.308 192.109 45.028C192.445 44.748 192.902 44.608 193.481 44.608C193.882 44.608 194.246 44.6827 194.573 44.832C194.909 44.9813 195.193 45.21 195.427 45.518C195.669 45.826 195.856 46.218 195.987 46.694C196.127 47.17 196.197 47.7347 196.197 48.388C196.197 49.0413 196.127 49.606 195.987 50.082C195.856 50.558 195.669 50.95 195.427 51.258C195.193 51.566 194.909 51.7947 194.573 51.944C194.246 52.0933 193.882 52.168 193.481 52.168C192.902 52.168 192.445 52.0327 192.109 51.762C191.773 51.482 191.516 51.1227 191.339 50.684H191.241V52H189.169V41.64ZM192.585 50.558C193.051 50.558 193.411 50.418 193.663 50.138C193.915 49.8487 194.041 49.452 194.041 48.948V47.828C194.041 47.324 193.915 46.932 193.663 46.652C193.411 46.3627 193.051 46.218 192.585 46.218C192.221 46.218 191.903 46.3067 191.633 46.484C191.371 46.6613 191.241 46.9413 191.241 47.324V49.452C191.241 49.8347 191.371 50.1147 191.633 50.292C191.903 50.4693 192.221 50.558 192.585 50.558ZM197.157 52V44.776H198.823V45.84H198.921C199.033 45.504 199.192 45.2147 199.397 44.972C199.612 44.7293 199.91 44.608 200.293 44.608C200.993 44.608 201.422 45.0187 201.581 45.84H201.665C201.721 45.672 201.791 45.5133 201.875 45.364C201.959 45.2147 202.062 45.084 202.183 44.972C202.304 44.86 202.449 44.7713 202.617 44.706C202.785 44.6407 202.981 44.608 203.205 44.608C204.213 44.608 204.717 45.35 204.717 46.834V52H203.051V47.044C203.051 46.708 202.99 46.4747 202.869 46.344C202.757 46.204 202.608 46.134 202.421 46.134C202.244 46.134 202.09 46.1947 201.959 46.316C201.838 46.428 201.777 46.6053 201.777 46.848V52H200.097V47.044C200.097 46.708 200.041 46.4747 199.929 46.344C199.826 46.204 199.682 46.134 199.495 46.134C199.308 46.134 199.15 46.1947 199.019 46.316C198.888 46.428 198.823 46.6053 198.823 46.848V52H197.157ZM209.78 43.852C209.313 43.852 208.986 43.7587 208.8 43.572C208.622 43.376 208.534 43.1427 208.534 42.872V42.466C208.534 42.186 208.622 41.9527 208.8 41.766C208.986 41.5793 209.313 41.486 209.78 41.486C210.246 41.486 210.568 41.5793 210.746 41.766C210.932 41.9527 211.026 42.186 211.026 42.466V42.872C211.026 43.1427 210.932 43.376 210.746 43.572C210.568 43.7587 210.246 43.852 209.78 43.852ZM206.448 50.39H208.744V46.386H206.448V44.776H210.816V50.39H212.944V52H206.448V50.39ZM218.286 52C217.539 52 216.984 51.804 216.62 51.412C216.256 51.02 216.074 50.5207 216.074 49.914V46.386H214.114V44.776H215.388C215.696 44.776 215.915 44.7153 216.046 44.594C216.177 44.4727 216.242 44.2487 216.242 43.922V42.228H218.146V44.776H220.96V46.386H218.146V50.39H220.96V52H218.286Z" fill="white"/>
<path d="M238.187 46.3736L234.067 42.2592C233.721 41.9136 233.159 41.9136 232.813 42.2592C232.467 42.6048 232.467 43.1663 232.813 43.5119L236.305 47L232.813 50.4881C232.467 50.8337 232.467 51.3952 232.813 51.7408C232.986 51.9136 233.213 52 233.44 52C233.667 52 233.894 51.9136 234.067 51.7408L238.187 47.6264C238.533 47.2808 238.533 46.7193 238.187 46.3737L238.187 46.3736Z" fill="white"/>
</g>
<defs>
<filter id="filter0_d_207_221" x="0" y="0" width="410" height="110" filterUnits="userSpaceOnUse" color-interpolation-filters="sRGB">
<feFlood flood-opacity="0" result="BackgroundImageFix"/>
<feColorMatrix in="SourceAlpha" type="matrix" values="0 0 0 0 0 0 0 0 0 0 0 0 0 0 0 0 0 0 127 0" result="hardAlpha"/>
<feOffset dy="8"/>
<feGaussianBlur stdDeviation="15"/>
<feComposite in2="hardAlpha" operator="out"/>
<feColorMatrix type="matrix" values="0 0 0 0 0.247059 0 0 0 0 0.556863 0 0 0 0 0 0 0 0 0.3 0"/>
<feBlend mode="normal" in2="BackgroundImageFix" result="effect1_dropShadow_207_221"/>
<feBlend mode="normal" in="SourceGraphic" in2="effect1_dropShadow_207_221" result="shape"/>
</filter>
</defs>
</svg>
