<svg width="200" height="98" viewBox="0 0 200 98" fill="none" xmlns="http://www.w3.org/2000/svg">
<g filter="url(#filter0_d_207_132)">
<rect x="30" y="22" width="139.893" height="38" rx="4" fill="#3F8E00" shape-rendering="crispEdges"/>
<rect x="30.5" y="22.5" width="138.893" height="37" rx="3.5" stroke="#62BA1B" shape-rendering="crispEdges"/>
<path d="M57.92 41.926L57.052 43.144V46H54.952V36.228H57.052V40.316H57.164L58.228 38.692L59.95 36.228H62.302L59.376 40.358L62.442 46H60.076L57.92 41.926ZM63.3045 46V38.776H65.3765V40.092H65.4605C65.5445 39.8867 65.6472 39.6953 65.7685 39.518C65.8899 39.3407 66.0345 39.1867 66.2025 39.056C66.3799 38.916 66.5805 38.8087 66.8045 38.734C67.0379 38.65 67.2992 38.608 67.5885 38.608C67.9339 38.608 68.2512 38.6687 68.5405 38.79C68.8299 38.902 69.0772 39.0747 69.2825 39.308C69.4879 39.5413 69.6465 39.826 69.7585 40.162C69.8799 40.498 69.9405 40.8853 69.9405 41.324V46H67.8685V41.604C67.8685 40.6707 67.4625 40.204 66.6505 40.204C66.4919 40.204 66.3332 40.2273 66.1745 40.274C66.0252 40.3113 65.8899 40.3767 65.7685 40.47C65.6472 40.554 65.5492 40.6613 65.4745 40.792C65.4092 40.9227 65.3765 41.0767 65.3765 41.254V46H63.3045ZM74.9891 46.168C74.4291 46.168 73.9251 46.084 73.4771 45.916C73.0291 45.7387 72.6464 45.4867 72.3291 45.16C72.0211 44.8333 71.7831 44.4367 71.6151 43.97C71.4471 43.5033 71.3631 42.976 71.3631 42.388C71.3631 41.8 71.4471 41.2727 71.6151 40.806C71.7831 40.3393 72.0211 39.9427 72.3291 39.616C72.6464 39.2893 73.0291 39.042 73.4771 38.874C73.9251 38.6967 74.4291 38.608 74.9891 38.608C75.5491 38.608 76.0531 38.6967 76.5011 38.874C76.9491 39.042 77.3271 39.2893 77.6351 39.616C77.9524 39.9427 78.1951 40.3393 78.3631 40.806C78.5311 41.2727 78.6151 41.8 78.6151 42.388C78.6151 42.976 78.5311 43.5033 78.3631 43.97C78.1951 44.4367 77.9524 44.8333 77.6351 45.16C77.3271 45.4867 76.9491 45.7387 76.5011 45.916C76.0531 46.084 75.5491 46.168 74.9891 46.168ZM74.9891 44.628C75.4557 44.628 75.8197 44.4833 76.0811 44.194C76.3424 43.9047 76.4731 43.494 76.4731 42.962V41.814C76.4731 41.282 76.3424 40.8713 76.0811 40.582C75.8197 40.2927 75.4557 40.148 74.9891 40.148C74.5224 40.148 74.1584 40.2927 73.8971 40.582C73.6357 40.8713 73.5051 41.282 73.5051 41.814V42.962C73.5051 43.494 73.6357 43.9047 73.8971 44.194C74.1584 44.4833 74.5224 44.628 74.9891 44.628ZM79.2816 38.776H81.0036L81.5216 44.628H81.6616L82.5156 38.776H84.3356L85.1756 44.628H85.3156L85.8476 38.776H87.4856L86.6316 46H84.1676L83.4536 41.016H83.3136L82.5996 46H80.1356L79.2816 38.776ZM96.3927 46V38.776H98.0587V39.84H98.1567C98.2687 39.504 98.4273 39.2147 98.6327 38.972C98.8473 38.7293 99.146 38.608 99.5287 38.608C100.229 38.608 100.658 39.0187 100.817 39.84H100.901C100.957 39.672 101.027 39.5133 101.111 39.364C101.195 39.2147 101.297 39.084 101.419 38.972C101.54 38.86 101.685 38.7713 101.853 38.706C102.021 38.6407 102.217 38.608 102.441 38.608C103.449 38.608 103.953 39.35 103.953 40.834V46H102.287V41.044C102.287 40.708 102.226 40.4747 102.105 40.344C101.993 40.204 101.843 40.134 101.657 40.134C101.479 40.134 101.325 40.1947 101.195 40.316C101.073 40.428 101.013 40.6053 101.013 40.848V46H99.3327V41.044C99.3327 40.708 99.2767 40.4747 99.1647 40.344C99.062 40.204 98.9173 40.134 98.7307 40.134C98.544 40.134 98.3853 40.1947 98.2547 40.316C98.124 40.428 98.0587 40.6053 98.0587 40.848V46H96.3927ZM108.567 46.168C108.007 46.168 107.503 46.084 107.055 45.916C106.607 45.7387 106.225 45.4867 105.907 45.16C105.599 44.8333 105.361 44.4367 105.193 43.97C105.025 43.5033 104.941 42.976 104.941 42.388C104.941 41.8 105.025 41.2727 105.193 40.806C105.361 40.3393 105.599 39.9427 105.907 39.616C106.225 39.2893 106.607 39.042 107.055 38.874C107.503 38.6967 108.007 38.608 108.567 38.608C109.127 38.608 109.631 38.6967 110.079 38.874C110.527 39.042 110.905 39.2893 111.213 39.616C111.531 39.9427 111.773 40.3393 111.941 40.806C112.109 41.2727 112.193 41.8 112.193 42.388C112.193 42.976 112.109 43.5033 111.941 43.97C111.773 44.4367 111.531 44.8333 111.213 45.16C110.905 45.4867 110.527 45.7387 110.079 45.916C109.631 46.084 109.127 46.168 108.567 46.168ZM108.567 44.628C109.034 44.628 109.398 44.4833 109.659 44.194C109.921 43.9047 110.051 43.494 110.051 42.962V41.814C110.051 41.282 109.921 40.8713 109.659 40.582C109.398 40.2927 109.034 40.148 108.567 40.148C108.101 40.148 107.737 40.2927 107.475 40.582C107.214 40.8713 107.083 41.282 107.083 41.814V42.962C107.083 43.494 107.214 43.9047 107.475 44.194C107.737 44.4833 108.101 44.628 108.567 44.628ZM113.798 44.39H115.464V40.386H113.798V38.776H117.536V40.82H117.634C117.699 40.5587 117.788 40.3067 117.9 40.064C118.021 39.812 118.17 39.5927 118.348 39.406C118.534 39.21 118.758 39.056 119.02 38.944C119.281 38.832 119.589 38.776 119.944 38.776H120.63V40.68H119.09C118.576 40.68 118.189 40.834 117.928 41.142C117.666 41.4407 117.536 41.8093 117.536 42.248V44.39H119.916V46H113.798V44.39ZM125.552 46.168C124.339 46.168 123.42 45.832 122.794 45.16C122.169 44.488 121.856 43.5733 121.856 42.416C121.856 41.828 121.936 41.3007 122.094 40.834C122.262 40.358 122.496 39.9567 122.794 39.63C123.102 39.294 123.471 39.042 123.9 38.874C124.339 38.6967 124.829 38.608 125.37 38.608C125.912 38.608 126.397 38.6967 126.826 38.874C127.256 39.042 127.62 39.2847 127.918 39.602C128.217 39.9193 128.446 40.3067 128.604 40.764C128.772 41.212 128.856 41.716 128.856 42.276V42.892H123.914V43.018C123.914 43.4847 124.059 43.8627 124.348 44.152C124.638 44.432 125.062 44.572 125.622 44.572C126.052 44.572 126.42 44.4927 126.728 44.334C127.036 44.166 127.302 43.9467 127.526 43.676L128.646 44.894C128.366 45.2393 127.974 45.538 127.47 45.79C126.966 46.042 126.327 46.168 125.552 46.168ZM125.384 40.092C124.936 40.092 124.577 40.232 124.306 40.512C124.045 40.7827 123.914 41.1513 123.914 41.618V41.73H126.826V41.618C126.826 41.142 126.696 40.7687 126.434 40.498C126.182 40.2273 125.832 40.092 125.384 40.092Z" fill="white"/>
<path d="M145.633 40.3736L141.514 36.2592C141.168 35.9136 140.606 35.9136 140.26 36.2592C139.913 36.6048 139.913 37.1663 140.26 37.5119L143.752 41L140.26 44.4881C139.913 44.8337 139.913 45.3952 140.26 45.7408C140.433 45.9136 140.66 46 140.887 46C141.114 46 141.341 45.9136 141.514 45.7408L145.633 41.6264C145.979 41.2808 145.979 40.7193 145.633 40.3737L145.633 40.3736Z" fill="white"/>
</g>
<defs>
<filter id="filter0_d_207_132" x="0" y="0" width="199.893" height="98" filterUnits="userSpaceOnUse" color-interpolation-filters="sRGB">
<feFlood flood-opacity="0" result="BackgroundImageFix"/>
<feColorMatrix in="SourceAlpha" type="matrix" values="0 0 0 0 0 0 0 0 0 0 0 0 0 0 0 0 0 0 127 0" result="hardAlpha"/>
<feOffset dy="8"/>
<feGaussianBlur stdDeviation="15"/>
<feComposite in2="hardAlpha" operator="out"/>
<feColorMatrix type="matrix" values="0 0 0 0 0.247059 0 0 0 0 0.556863 0 0 0 0 0 0 0 0 0.3 0"/>
<feBlend mode="normal" in2="BackgroundImageFix" result="effect1_dropShadow_207_132"/>
<feBlend mode="normal" in="SourceGraphic" in2="effect1_dropShadow_207_132" result="shape"/>
</filter>
</defs>
</svg>
